<?xml version="1.0" encoding="utf-8"?>
<!-- Generator: Adobe Illustrator 18.0.0, SVG Export Plug-In . SVG Version: 6.00 Build 0)  -->
<!DOCTYPE svg PUBLIC "-//W3C//DTD SVG 1.1//EN" "http://www.w3.org/Graphics/SVG/1.1/DTD/svg11.dtd">
<svg version="1.1" id="Calque_1" xmlns:sketch="http://www.bohemiancoding.com/sketch/ns"
	 xmlns="http://www.w3.org/2000/svg" xmlns:xlink="http://www.w3.org/1999/xlink" x="0px" y="0px" viewBox="12 13.7 24 27.3"
	 enable-background="new 12 13.7 24 27.3" xml:space="preserve">
<title>VERRE</title>
<desc>Created with Sketch.</desc>
<g>
	<path id="VERRE" sketch:type="MSShapeGroup" fill="none" stroke="#FFFFFF" stroke-width="2" d="M16.1,16.3h12.2
		c0.7,0,1.3,0.6,1.3,1.3v20.2c0,0.7-0.6,1.3-1.3,1.3H16.1c-0.7,0-1.3-0.6-1.3-1.3V17.5C14.8,16.8,15.4,16.3,16.1,16.3z"/>
	<path id="Rectangle-42" sketch:type="MSShapeGroup" fill="none" stroke="#FFFFFF" stroke-width="2" d="M30.5,22h1.9
		c0.5,0,0.9,0.6,0.9,1.3v8.2c0,0.7-0.4,1.3-0.9,1.3h-1.9c-0.5,0-0.9-0.6-0.9-1.3v-8.2C29.6,22.5,30,22,30.5,22z"/>
</g>
</svg>
